<svg version="1.1" xmlns="http://www.w3.org/2000/svg" xmlns:xlink="http://www.w3.org/1999/xlink" width="400" height="200" viewBox="0 0 300 135"><defs/><g/><g transform="scale(1,1) scale(1,1) translate(0.5,0.5)"><path fill="none" stroke="rgb(255,255,255)" paint-order="fill stroke markers" d=" M 37.5 33.75 L 262.5 33.75 L 262.5 101.25 L 37.5 101.25 L 37.5 33.75 Z" stroke-opacity="1" stroke-linecap="round" stroke-miterlimit="10"/><g transform="translate(-0.5,-0.5) translate(0.5,0.5)"><path fill="none" stroke="rgb(255,255,255)" paint-order="fill stroke markers" d=" M 42.5 38.75 L 257.5 38.75 L 257.5 96.25 L 42.5 96.25 L 42.5 38.75 Z" stroke-opacity="1" stroke-linecap="round" stroke-miterlimit="10"/><g transform="translate(-0.5,-0.5) translate(0.5,0.5)"><path fill="none" stroke="rgb(255,255,255)" paint-order="fill stroke markers" d=" M 47.5 43.75 L 252.5 43.75 L 252.5 91.25 L 47.5 91.25 L 47.5 43.75 Z" stroke-opacity="1" stroke-linecap="round" stroke-miterlimit="10"/><g transform="translate(-0.5,-0.5) translate(0.5,0.5)"><path fill="none" stroke="rgb(255,255,255)" paint-order="fill stroke markers" d=" M 52.5 48.75 L 247.5 48.75 L 247.5 86.25 L 52.5 86.25 L 52.5 48.75 Z" stroke-opacity="1" stroke-linecap="round" stroke-miterlimit="10"/><g transform="translate(-0.5,-0.5) translate(0.5,0.5)"><path fill="none" stroke="rgb(255,255,255)" paint-order="fill stroke markers" d=" M 57.5 53.75 L 242.5 53.75 L 242.5 81.25 L 57.5 81.25 L 57.5 53.75 Z" stroke-opacity="1" stroke-linecap="round" stroke-miterlimit="10"/><g transform="translate(-0.5,-0.5) translate(0.5,0.5)"><path fill="none" stroke="rgb(255,255,255)" paint-order="fill stroke markers" d=" M 62.5 58.75 L 237.5 58.75 L 237.5 76.25 L 62.5 76.25 L 62.5 58.75 Z" stroke-opacity="1" stroke-linecap="round" stroke-miterlimit="10"/><g transform="translate(-0.5,-0.5) translate(0.5,0.5)"><path fill="none" stroke="rgb(255,255,255)" paint-order="fill stroke markers" d=" M 67.5 63.75 L 232.5 63.75 L 232.5 71.25 L 67.5 71.25 L 67.5 63.75 Z" stroke-opacity="1" stroke-linecap="round" stroke-miterlimit="10"/><g transform="translate(-0.5,-0.5)"><path fill="none" stroke="rgb(255,255,255)" paint-order="fill stroke markers" d=" M 150 135 L 150 101.25 L 150 101.25 Z" stroke-opacity="1" stroke-linecap="round" stroke-miterlimit="10"/><path fill="none" stroke="rgb(255,255,255)" paint-order="fill stroke markers" d=" M 150 135 L 140 101.25 L 160 101.25 Z" stroke-opacity="1" stroke-linecap="round" stroke-miterlimit="10"/><path fill="none" stroke="rgb(255,255,255)" paint-order="fill stroke markers" d=" M 150 135 L 130 101.25 L 170 101.25 Z" stroke-opacity="1" stroke-linecap="round" stroke-miterlimit="10"/><path fill="none" stroke="rgb(255,255,255)" paint-order="fill stroke markers" d=" M 150 135 L 120 101.25 L 180 101.25 Z" stroke-opacity="1" stroke-linecap="round" stroke-miterlimit="10"/><path fill="none" stroke="rgb(255,255,255)" paint-order="fill stroke markers" d=" M 150 135 L 110 101.25 L 190 101.25 Z" stroke-opacity="1" stroke-linecap="round" stroke-miterlimit="10"/><path fill="none" stroke="rgb(255,255,255)" paint-order="fill stroke markers" d=" M 150 135 L 100 101.25 L 200 101.25 Z" stroke-opacity="1" stroke-linecap="round" stroke-miterlimit="10"/><path fill="none" stroke="rgb(255,255,255)" paint-order="fill stroke markers" d=" M 150 135 L 90 101.25 L 210 101.25 Z" stroke-opacity="1" stroke-linecap="round" stroke-miterlimit="10"/><path fill="none" stroke="rgb(255,255,255)" paint-order="fill stroke markers" d=" M 150 135 L 80 101.25 L 220 101.25 Z" stroke-opacity="1" stroke-linecap="round" stroke-miterlimit="10"/><path fill="none" stroke="rgb(255,255,255)" paint-order="fill stroke markers" d=" M 150 0 L 150 101.25 L 150 101.25 Z" stroke-opacity="1" stroke-linecap="round" stroke-miterlimit="10"/><path fill="none" stroke="rgb(255,255,255)" paint-order="fill stroke markers" d=" M 150 0 L 140 101.25 L 160 101.25 Z" stroke-opacity="1" stroke-linecap="round" stroke-miterlimit="10"/><path fill="none" stroke="rgb(255,255,255)" paint-order="fill stroke markers" d=" M 150 0 L 130 101.25 L 170 101.25 Z" stroke-opacity="1" stroke-linecap="round" stroke-miterlimit="10"/><path fill="none" stroke="rgb(255,255,255)" paint-order="fill stroke markers" d=" M 150 0 L 120 101.25 L 180 101.25 Z" stroke-opacity="1" stroke-linecap="round" stroke-miterlimit="10"/><path fill="none" stroke="rgb(255,255,255)" paint-order="fill stroke markers" d=" M 150 0 L 110 101.25 L 190 101.25 Z" stroke-opacity="1" stroke-linecap="round" stroke-miterlimit="10"/><path fill="none" stroke="rgb(255,255,255)" paint-order="fill stroke markers" d=" M 150 0 L 100 101.25 L 200 101.25 Z" stroke-opacity="1" stroke-linecap="round" stroke-miterlimit="10"/><path fill="none" stroke="rgb(255,255,255)" paint-order="fill stroke markers" d=" M 150 0 L 90 101.25 L 210 101.25 Z" stroke-opacity="1" stroke-linecap="round" stroke-miterlimit="10"/><path fill="none" stroke="rgb(255,255,255)" paint-order="fill stroke markers" d=" M 150 0 L 80 101.25 L 220 101.25 Z" stroke-opacity="1" stroke-linecap="round" stroke-miterlimit="10"/></g></g></g></g></g></g></g></g></svg>
