<svg version="1.1" xmlns="http://www.w3.org/2000/svg" xmlns:xlink="http://www.w3.org/1999/xlink" width="400" height="200" viewBox="0 0 300 135"><defs/><g/><g transform="scale(1,1)"><g transform="scale(1,1)"><rect fill="rgb(255,255,255)" stroke="none" x="0" y="0" width="300" height="135" fill-opacity="1"/></g><g transform="scale(1,1)"><path fill="none" stroke="rgb(255,255,255)" paint-order="fill stroke markers" d=" M 150 0 L 13.636363636363637 14.464285714285714" stroke-opacity="1" stroke-linecap="round" stroke-miterlimit="10"/><path fill="none" stroke="rgb(255,255,255)" paint-order="fill stroke markers" d=" M 150 0 L 272.7272727272727 14.464285714285714" stroke-opacity="1" stroke-linecap="round" stroke-miterlimit="10"/><g transform="translate(13.636363636363637,14.464285714285714)"><path fill="none" stroke="rgb(255,255,255)" paint-order="fill stroke markers" d=" M 0 0 L 20 0" stroke-opacity="1" stroke-linecap="round" stroke-miterlimit="10"/><path fill="none" stroke="rgb(255,255,255)" paint-order="fill stroke markers" d=" M 0 0 L 20 0" stroke-opacity="1" stroke-linecap="round" stroke-miterlimit="10"/></g><g transform="translate(13.636363636363637,24.107142857142858)"><path fill="none" stroke="rgb(255,255,255)" paint-order="fill stroke markers" d=" M 0 0 L 20 0" stroke-opacity="1" stroke-linecap="round" stroke-miterlimit="10"/><path fill="none" stroke="rgb(255,255,255)" paint-order="fill stroke markers" d=" M 0 0 L 20 -10" stroke-opacity="1" stroke-linecap="round" stroke-miterlimit="10"/></g><g transform="translate(13.636363636363637,33.75)"><path fill="none" stroke="rgb(255,255,255)" paint-order="fill stroke markers" d=" M 0 0 L 20 0" stroke-opacity="1" stroke-linecap="round" stroke-miterlimit="10"/><path fill="none" stroke="rgb(255,255,255)" paint-order="fill stroke markers" d=" M 0 0 L 20 -20" stroke-opacity="1" stroke-linecap="round" stroke-miterlimit="10"/></g><g transform="translate(13.636363636363637,43.392857142857146)"><path fill="none" stroke="rgb(255,255,255)" paint-order="fill stroke markers" d=" M 0 0 L 20 0" stroke-opacity="1" stroke-linecap="round" stroke-miterlimit="10"/><path fill="none" stroke="rgb(255,255,255)" paint-order="fill stroke markers" d=" M 0 0 L 20 -30" stroke-opacity="1" stroke-linecap="round" stroke-miterlimit="10"/></g><g transform="translate(13.636363636363637,53.035714285714285)"><path fill="none" stroke="rgb(255,255,255)" paint-order="fill stroke markers" d=" M 0 0 L 20 0" stroke-opacity="1" stroke-linecap="round" stroke-miterlimit="10"/><path fill="none" stroke="rgb(255,255,255)" paint-order="fill stroke markers" d=" M 0 0 L 20 -40" stroke-opacity="1" stroke-linecap="round" stroke-miterlimit="10"/></g><g transform="translate(13.636363636363637,62.67857142857143)"><path fill="none" stroke="rgb(255,255,255)" paint-order="fill stroke markers" d=" M 0 0 L 20 0" stroke-opacity="1" stroke-linecap="round" stroke-miterlimit="10"/><path fill="none" stroke="rgb(255,255,255)" paint-order="fill stroke markers" d=" M 0 0 L 20 -50" stroke-opacity="1" stroke-linecap="round" stroke-miterlimit="10"/></g><g transform="translate(13.636363636363637,72.32142857142857)"><path fill="none" stroke="rgb(255,255,255)" paint-order="fill stroke markers" d=" M 0 0 L 20 0" stroke-opacity="1" stroke-linecap="round" stroke-miterlimit="10"/><path fill="none" stroke="rgb(255,255,255)" paint-order="fill stroke markers" d=" M 0 0 L 20 -60" stroke-opacity="1" stroke-linecap="round" stroke-miterlimit="10"/></g><g transform="translate(13.636363636363637,81.96428571428571)"><path fill="none" stroke="rgb(255,255,255)" paint-order="fill stroke markers" d=" M 0 0 L 20 0" stroke-opacity="1" stroke-linecap="round" stroke-miterlimit="10"/><path fill="none" stroke="rgb(255,255,255)" paint-order="fill stroke markers" d=" M 0 0 L 20 -70" stroke-opacity="1" stroke-linecap="round" stroke-miterlimit="10"/></g><g transform="translate(13.636363636363637,91.60714285714286)"><path fill="none" stroke="rgb(255,255,255)" paint-order="fill stroke markers" d=" M 0 0 L 20 0" stroke-opacity="1" stroke-linecap="round" stroke-miterlimit="10"/><path fill="none" stroke="rgb(255,255,255)" paint-order="fill stroke markers" d=" M 0 0 L 20 -80" stroke-opacity="1" stroke-linecap="round" stroke-miterlimit="10"/></g><g transform="translate(13.636363636363637,101.25)"><path fill="none" stroke="rgb(255,255,255)" paint-order="fill stroke markers" d=" M 0 0 L 20 0" stroke-opacity="1" stroke-linecap="round" stroke-miterlimit="10"/><path fill="none" stroke="rgb(255,255,255)" paint-order="fill stroke markers" d=" M 0 0 L 20 -90" stroke-opacity="1" stroke-linecap="round" stroke-miterlimit="10"/></g><g transform="translate(40.90909090909091,14.464285714285714)"><path fill="none" stroke="rgb(255,255,255)" paint-order="fill stroke markers" d=" M 0 0 L 20 5" stroke-opacity="1" stroke-linecap="round" stroke-miterlimit="10"/><path fill="none" stroke="rgb(255,255,255)" paint-order="fill stroke markers" d=" M 0 0 L 20 0" stroke-opacity="1" stroke-linecap="round" stroke-miterlimit="10"/></g><g transform="translate(40.90909090909091,24.107142857142858)"><path fill="none" stroke="rgb(255,255,255)" paint-order="fill stroke markers" d=" M 0 0 L 20 5" stroke-opacity="1" stroke-linecap="round" stroke-miterlimit="10"/><path fill="none" stroke="rgb(255,255,255)" paint-order="fill stroke markers" d=" M 0 0 L 20 -10" stroke-opacity="1" stroke-linecap="round" stroke-miterlimit="10"/></g><g transform="translate(40.90909090909091,33.75)"><path fill="none" stroke="rgb(255,255,255)" paint-order="fill stroke markers" d=" M 0 0 L 20 5" stroke-opacity="1" stroke-linecap="round" stroke-miterlimit="10"/><path fill="none" stroke="rgb(255,255,255)" paint-order="fill stroke markers" d=" M 0 0 L 20 -20" stroke-opacity="1" stroke-linecap="round" stroke-miterlimit="10"/></g><g transform="translate(40.90909090909091,43.392857142857146)"><path fill="none" stroke="rgb(255,255,255)" paint-order="fill stroke markers" d=" M 0 0 L 20 5" stroke-opacity="1" stroke-linecap="round" stroke-miterlimit="10"/><path fill="none" stroke="rgb(255,255,255)" paint-order="fill stroke markers" d=" M 0 0 L 20 -30" stroke-opacity="1" stroke-linecap="round" stroke-miterlimit="10"/></g><g transform="translate(40.90909090909091,53.035714285714285)"><path fill="none" stroke="rgb(255,255,255)" paint-order="fill stroke markers" d=" M 0 0 L 20 5" stroke-opacity="1" stroke-linecap="round" stroke-miterlimit="10"/><path fill="none" stroke="rgb(255,255,255)" paint-order="fill stroke markers" d=" M 0 0 L 20 -40" stroke-opacity="1" stroke-linecap="round" stroke-miterlimit="10"/></g><g transform="translate(40.90909090909091,62.67857142857143)"><path fill="none" stroke="rgb(255,255,255)" paint-order="fill stroke markers" d=" M 0 0 L 20 5" stroke-opacity="1" stroke-linecap="round" stroke-miterlimit="10"/><path fill="none" stroke="rgb(255,255,255)" paint-order="fill stroke markers" d=" M 0 0 L 20 -50" stroke-opacity="1" stroke-linecap="round" stroke-miterlimit="10"/></g><g transform="translate(40.90909090909091,72.32142857142857)"><path fill="none" stroke="rgb(255,255,255)" paint-order="fill stroke markers" d=" M 0 0 L 20 5" stroke-opacity="1" stroke-linecap="round" stroke-miterlimit="10"/><path fill="none" stroke="rgb(255,255,255)" paint-order="fill stroke markers" d=" M 0 0 L 20 -60" stroke-opacity="1" stroke-linecap="round" stroke-miterlimit="10"/></g><g transform="translate(40.90909090909091,81.96428571428571)"><path fill="none" stroke="rgb(255,255,255)" paint-order="fill stroke markers" d=" M 0 0 L 20 5" stroke-opacity="1" stroke-linecap="round" stroke-miterlimit="10"/><path fill="none" stroke="rgb(255,255,255)" paint-order="fill stroke markers" d=" M 0 0 L 20 -70" stroke-opacity="1" stroke-linecap="round" stroke-miterlimit="10"/></g><g transform="translate(40.90909090909091,91.60714285714286)"><path fill="none" stroke="rgb(255,255,255)" paint-order="fill stroke markers" d=" M 0 0 L 20 5" stroke-opacity="1" stroke-linecap="round" stroke-miterlimit="10"/><path fill="none" stroke="rgb(255,255,255)" paint-order="fill stroke markers" d=" M 0 0 L 20 -80" stroke-opacity="1" stroke-linecap="round" stroke-miterlimit="10"/></g><g transform="translate(40.90909090909091,101.25)"><path fill="none" stroke="rgb(255,255,255)" paint-order="fill stroke markers" d=" M 0 0 L 20 5" stroke-opacity="1" stroke-linecap="round" stroke-miterlimit="10"/><path fill="none" stroke="rgb(255,255,255)" paint-order="fill stroke markers" d=" M 0 0 L 20 -90" stroke-opacity="1" stroke-linecap="round" stroke-miterlimit="10"/></g><g transform="translate(68.18181818181817,14.464285714285714)"><path fill="none" stroke="rgb(255,255,255)" paint-order="fill stroke markers" d=" M 0 0 L 20 10" stroke-opacity="1" stroke-linecap="round" stroke-miterlimit="10"/><path fill="none" stroke="rgb(255,255,255)" paint-order="fill stroke markers" d=" M 0 0 L 20 0" stroke-opacity="1" stroke-linecap="round" stroke-miterlimit="10"/></g><g transform="translate(68.18181818181817,24.107142857142858)"><path fill="none" stroke="rgb(255,255,255)" paint-order="fill stroke markers" d=" M 0 0 L 20 10" stroke-opacity="1" stroke-linecap="round" stroke-miterlimit="10"/><path fill="none" stroke="rgb(255,255,255)" paint-order="fill stroke markers" d=" M 0 0 L 20 -10" stroke-opacity="1" stroke-linecap="round" stroke-miterlimit="10"/></g><g transform="translate(68.18181818181817,33.75)"><path fill="none" stroke="rgb(255,255,255)" paint-order="fill stroke markers" d=" M 0 0 L 20 10" stroke-opacity="1" stroke-linecap="round" stroke-miterlimit="10"/><path fill="none" stroke="rgb(255,255,255)" paint-order="fill stroke markers" d=" M 0 0 L 20 -20" stroke-opacity="1" stroke-linecap="round" stroke-miterlimit="10"/></g><g transform="translate(68.18181818181817,43.392857142857146)"><path fill="none" stroke="rgb(255,255,255)" paint-order="fill stroke markers" d=" M 0 0 L 20 10" stroke-opacity="1" stroke-linecap="round" stroke-miterlimit="10"/><path fill="none" stroke="rgb(255,255,255)" paint-order="fill stroke markers" d=" M 0 0 L 20 -30" stroke-opacity="1" stroke-linecap="round" stroke-miterlimit="10"/></g><g transform="translate(68.18181818181817,53.035714285714285)"><path fill="none" stroke="rgb(255,255,255)" paint-order="fill stroke markers" d=" M 0 0 L 20 10" stroke-opacity="1" stroke-linecap="round" stroke-miterlimit="10"/><path fill="none" stroke="rgb(255,255,255)" paint-order="fill stroke markers" d=" M 0 0 L 20 -40" stroke-opacity="1" stroke-linecap="round" stroke-miterlimit="10"/></g><g transform="translate(68.18181818181817,62.67857142857143)"><path fill="none" stroke="rgb(255,255,255)" paint-order="fill stroke markers" d=" M 0 0 L 20 10" stroke-opacity="1" stroke-linecap="round" stroke-miterlimit="10"/><path fill="none" stroke="rgb(255,255,255)" paint-order="fill stroke markers" d=" M 0 0 L 20 -50" stroke-opacity="1" stroke-linecap="round" stroke-miterlimit="10"/></g><g transform="translate(68.18181818181817,72.32142857142857)"><path fill="none" stroke="rgb(255,255,255)" paint-order="fill stroke markers" d=" M 0 0 L 20 10" stroke-opacity="1" stroke-linecap="round" stroke-miterlimit="10"/><path fill="none" stroke="rgb(255,255,255)" paint-order="fill stroke markers" d=" M 0 0 L 20 -60" stroke-opacity="1" stroke-linecap="round" stroke-miterlimit="10"/></g><g transform="translate(68.18181818181817,81.96428571428571)"><path fill="none" stroke="rgb(255,255,255)" paint-order="fill stroke markers" d=" M 0 0 L 20 10" stroke-opacity="1" stroke-linecap="round" stroke-miterlimit="10"/><path fill="none" stroke="rgb(255,255,255)" paint-order="fill stroke markers" d=" M 0 0 L 20 -70" stroke-opacity="1" stroke-linecap="round" stroke-miterlimit="10"/></g><g transform="translate(68.18181818181817,91.60714285714286)"><path fill="none" stroke="rgb(255,255,255)" paint-order="fill stroke markers" d=" M 0 0 L 20 10" stroke-opacity="1" stroke-linecap="round" stroke-miterlimit="10"/><path fill="none" stroke="rgb(255,255,255)" paint-order="fill stroke markers" d=" M 0 0 L 20 -80" stroke-opacity="1" stroke-linecap="round" stroke-miterlimit="10"/></g><g transform="translate(68.18181818181817,101.25)"><path fill="none" stroke="rgb(255,255,255)" paint-order="fill stroke markers" d=" M 0 0 L 20 10" stroke-opacity="1" stroke-linecap="round" stroke-miterlimit="10"/><path fill="none" stroke="rgb(255,255,255)" paint-order="fill stroke markers" d=" M 0 0 L 20 -90" stroke-opacity="1" stroke-linecap="round" stroke-miterlimit="10"/></g><g transform="translate(95.45454545454545,14.464285714285714)"><path fill="none" stroke="rgb(255,255,255)" paint-order="fill stroke markers" d=" M 0 0 L 20 15" stroke-opacity="1" stroke-linecap="round" stroke-miterlimit="10"/><path fill="none" stroke="rgb(255,255,255)" paint-order="fill stroke markers" d=" M 0 0 L 20 0" stroke-opacity="1" stroke-linecap="round" stroke-miterlimit="10"/></g><g transform="translate(95.45454545454545,24.107142857142858)"><path fill="none" stroke="rgb(255,255,255)" paint-order="fill stroke markers" d=" M 0 0 L 20 15" stroke-opacity="1" stroke-linecap="round" stroke-miterlimit="10"/><path fill="none" stroke="rgb(255,255,255)" paint-order="fill stroke markers" d=" M 0 0 L 20 -10" stroke-opacity="1" stroke-linecap="round" stroke-miterlimit="10"/></g><g transform="translate(95.45454545454545,33.75)"><path fill="none" stroke="rgb(255,255,255)" paint-order="fill stroke markers" d=" M 0 0 L 20 15" stroke-opacity="1" stroke-linecap="round" stroke-miterlimit="10"/><path fill="none" stroke="rgb(255,255,255)" paint-order="fill stroke markers" d=" M 0 0 L 20 -20" stroke-opacity="1" stroke-linecap="round" stroke-miterlimit="10"/></g><g transform="translate(95.45454545454545,43.392857142857146)"><path fill="none" stroke="rgb(255,255,255)" paint-order="fill stroke markers" d=" M 0 0 L 20 15" stroke-opacity="1" stroke-linecap="round" stroke-miterlimit="10"/><path fill="none" stroke="rgb(255,255,255)" paint-order="fill stroke markers" d=" M 0 0 L 20 -30" stroke-opacity="1" stroke-linecap="round" stroke-miterlimit="10"/></g><g transform="translate(95.45454545454545,53.035714285714285)"><path fill="none" stroke="rgb(255,255,255)" paint-order="fill stroke markers" d=" M 0 0 L 20 15" stroke-opacity="1" stroke-linecap="round" stroke-miterlimit="10"/><path fill="none" stroke="rgb(255,255,255)" paint-order="fill stroke markers" d=" M 0 0 L 20 -40" stroke-opacity="1" stroke-linecap="round" stroke-miterlimit="10"/></g><g transform="translate(95.45454545454545,62.67857142857143)"><path fill="none" stroke="rgb(255,255,255)" paint-order="fill stroke markers" d=" M 0 0 L 20 15" stroke-opacity="1" stroke-linecap="round" stroke-miterlimit="10"/><path fill="none" stroke="rgb(255,255,255)" paint-order="fill stroke markers" d=" M 0 0 L 20 -50" stroke-opacity="1" stroke-linecap="round" stroke-miterlimit="10"/></g><g transform="translate(95.45454545454545,72.32142857142857)"><path fill="none" stroke="rgb(255,255,255)" paint-order="fill stroke markers" d=" M 0 0 L 20 15" stroke-opacity="1" stroke-linecap="round" stroke-miterlimit="10"/><path fill="none" stroke="rgb(255,255,255)" paint-order="fill stroke markers" d=" M 0 0 L 20 -60" stroke-opacity="1" stroke-linecap="round" stroke-miterlimit="10"/></g><g transform="translate(95.45454545454545,81.96428571428571)"><path fill="none" stroke="rgb(255,255,255)" paint-order="fill stroke markers" d=" M 0 0 L 20 15" stroke-opacity="1" stroke-linecap="round" stroke-miterlimit="10"/><path fill="none" stroke="rgb(255,255,255)" paint-order="fill stroke markers" d=" M 0 0 L 20 -70" stroke-opacity="1" stroke-linecap="round" stroke-miterlimit="10"/></g><g transform="translate(95.45454545454545,91.60714285714286)"><path fill="none" stroke="rgb(255,255,255)" paint-order="fill stroke markers" d=" M 0 0 L 20 15" stroke-opacity="1" stroke-linecap="round" stroke-miterlimit="10"/><path fill="none" stroke="rgb(255,255,255)" paint-order="fill stroke markers" d=" M 0 0 L 20 -80" stroke-opacity="1" stroke-linecap="round" stroke-miterlimit="10"/></g><g transform="translate(95.45454545454545,101.25)"><path fill="none" stroke="rgb(255,255,255)" paint-order="fill stroke markers" d=" M 0 0 L 20 15" stroke-opacity="1" stroke-linecap="round" stroke-miterlimit="10"/><path fill="none" stroke="rgb(255,255,255)" paint-order="fill stroke markers" d=" M 0 0 L 20 -90" stroke-opacity="1" stroke-linecap="round" stroke-miterlimit="10"/></g><g transform="translate(122.72727272727273,14.464285714285714)"><path fill="none" stroke="rgb(255,255,255)" paint-order="fill stroke markers" d=" M 0 0 L 20 20" stroke-opacity="1" stroke-linecap="round" stroke-miterlimit="10"/><path fill="none" stroke="rgb(255,255,255)" paint-order="fill stroke markers" d=" M 0 0 L 20 0" stroke-opacity="1" stroke-linecap="round" stroke-miterlimit="10"/></g><g transform="translate(122.72727272727273,24.107142857142858)"><path fill="none" stroke="rgb(255,255,255)" paint-order="fill stroke markers" d=" M 0 0 L 20 20" stroke-opacity="1" stroke-linecap="round" stroke-miterlimit="10"/><path fill="none" stroke="rgb(255,255,255)" paint-order="fill stroke markers" d=" M 0 0 L 20 -10" stroke-opacity="1" stroke-linecap="round" stroke-miterlimit="10"/></g><g transform="translate(122.72727272727273,33.75)"><path fill="none" stroke="rgb(255,255,255)" paint-order="fill stroke markers" d=" M 0 0 L 20 20" stroke-opacity="1" stroke-linecap="round" stroke-miterlimit="10"/><path fill="none" stroke="rgb(255,255,255)" paint-order="fill stroke markers" d=" M 0 0 L 20 -20" stroke-opacity="1" stroke-linecap="round" stroke-miterlimit="10"/></g><g transform="translate(122.72727272727273,43.392857142857146)"><path fill="none" stroke="rgb(255,255,255)" paint-order="fill stroke markers" d=" M 0 0 L 20 20" stroke-opacity="1" stroke-linecap="round" stroke-miterlimit="10"/><path fill="none" stroke="rgb(255,255,255)" paint-order="fill stroke markers" d=" M 0 0 L 20 -30" stroke-opacity="1" stroke-linecap="round" stroke-miterlimit="10"/></g><g transform="translate(122.72727272727273,53.035714285714285)"><path fill="none" stroke="rgb(255,255,255)" paint-order="fill stroke markers" d=" M 0 0 L 20 20" stroke-opacity="1" stroke-linecap="round" stroke-miterlimit="10"/><path fill="none" stroke="rgb(255,255,255)" paint-order="fill stroke markers" d=" M 0 0 L 20 -40" stroke-opacity="1" stroke-linecap="round" stroke-miterlimit="10"/></g><g transform="translate(122.72727272727273,62.67857142857143)"><path fill="none" stroke="rgb(255,255,255)" paint-order="fill stroke markers" d=" M 0 0 L 20 20" stroke-opacity="1" stroke-linecap="round" stroke-miterlimit="10"/><path fill="none" stroke="rgb(255,255,255)" paint-order="fill stroke markers" d=" M 0 0 L 20 -50" stroke-opacity="1" stroke-linecap="round" stroke-miterlimit="10"/></g><g transform="translate(122.72727272727273,72.32142857142857)"><path fill="none" stroke="rgb(255,255,255)" paint-order="fill stroke markers" d=" M 0 0 L 20 20" stroke-opacity="1" stroke-linecap="round" stroke-miterlimit="10"/><path fill="none" stroke="rgb(255,255,255)" paint-order="fill stroke markers" d=" M 0 0 L 20 -60" stroke-opacity="1" stroke-linecap="round" stroke-miterlimit="10"/></g><g transform="translate(122.72727272727273,81.96428571428571)"><path fill="none" stroke="rgb(255,255,255)" paint-order="fill stroke markers" d=" M 0 0 L 20 20" stroke-opacity="1" stroke-linecap="round" stroke-miterlimit="10"/><path fill="none" stroke="rgb(255,255,255)" paint-order="fill stroke markers" d=" M 0 0 L 20 -70" stroke-opacity="1" stroke-linecap="round" stroke-miterlimit="10"/></g><g transform="translate(122.72727272727273,91.60714285714286)"><path fill="none" stroke="rgb(255,255,255)" paint-order="fill stroke markers" d=" M 0 0 L 20 20" stroke-opacity="1" stroke-linecap="round" stroke-miterlimit="10"/><path fill="none" stroke="rgb(255,255,255)" paint-order="fill stroke markers" d=" M 0 0 L 20 -80" stroke-opacity="1" stroke-linecap="round" stroke-miterlimit="10"/></g><g transform="translate(122.72727272727273,101.25)"><path fill="none" stroke="rgb(255,255,255)" paint-order="fill stroke markers" d=" M 0 0 L 20 20" stroke-opacity="1" stroke-linecap="round" stroke-miterlimit="10"/><path fill="none" stroke="rgb(255,255,255)" paint-order="fill stroke markers" d=" M 0 0 L 20 -90" stroke-opacity="1" stroke-linecap="round" stroke-miterlimit="10"/></g><g transform="translate(150,14.464285714285714)"><path fill="none" stroke="rgb(255,255,255)" paint-order="fill stroke markers" d=" M 0 0 L 20 25" stroke-opacity="1" stroke-linecap="round" stroke-miterlimit="10"/><path fill="none" stroke="rgb(255,255,255)" paint-order="fill stroke markers" d=" M 0 0 L 20 0" stroke-opacity="1" stroke-linecap="round" stroke-miterlimit="10"/></g><g transform="translate(150,24.107142857142858)"><path fill="none" stroke="rgb(255,255,255)" paint-order="fill stroke markers" d=" M 0 0 L 20 25" stroke-opacity="1" stroke-linecap="round" stroke-miterlimit="10"/><path fill="none" stroke="rgb(255,255,255)" paint-order="fill stroke markers" d=" M 0 0 L 20 -10" stroke-opacity="1" stroke-linecap="round" stroke-miterlimit="10"/></g><g transform="translate(150,33.75)"><path fill="none" stroke="rgb(255,255,255)" paint-order="fill stroke markers" d=" M 0 0 L 20 25" stroke-opacity="1" stroke-linecap="round" stroke-miterlimit="10"/><path fill="none" stroke="rgb(255,255,255)" paint-order="fill stroke markers" d=" M 0 0 L 20 -20" stroke-opacity="1" stroke-linecap="round" stroke-miterlimit="10"/></g><g transform="translate(150,43.392857142857146)"><path fill="none" stroke="rgb(255,255,255)" paint-order="fill stroke markers" d=" M 0 0 L 20 25" stroke-opacity="1" stroke-linecap="round" stroke-miterlimit="10"/><path fill="none" stroke="rgb(255,255,255)" paint-order="fill stroke markers" d=" M 0 0 L 20 -30" stroke-opacity="1" stroke-linecap="round" stroke-miterlimit="10"/></g><g transform="translate(150,53.035714285714285)"><path fill="none" stroke="rgb(255,255,255)" paint-order="fill stroke markers" d=" M 0 0 L 20 25" stroke-opacity="1" stroke-linecap="round" stroke-miterlimit="10"/><path fill="none" stroke="rgb(255,255,255)" paint-order="fill stroke markers" d=" M 0 0 L 20 -40" stroke-opacity="1" stroke-linecap="round" stroke-miterlimit="10"/></g><g transform="translate(150,62.67857142857143)"><path fill="none" stroke="rgb(255,255,255)" paint-order="fill stroke markers" d=" M 0 0 L 20 25" stroke-opacity="1" stroke-linecap="round" stroke-miterlimit="10"/><path fill="none" stroke="rgb(255,255,255)" paint-order="fill stroke markers" d=" M 0 0 L 20 -50" stroke-opacity="1" stroke-linecap="round" stroke-miterlimit="10"/></g><g transform="translate(150,72.32142857142857)"><path fill="none" stroke="rgb(255,255,255)" paint-order="fill stroke markers" d=" M 0 0 L 20 25" stroke-opacity="1" stroke-linecap="round" stroke-miterlimit="10"/><path fill="none" stroke="rgb(255,255,255)" paint-order="fill stroke markers" d=" M 0 0 L 20 -60" stroke-opacity="1" stroke-linecap="round" stroke-miterlimit="10"/></g><g transform="translate(150,81.96428571428571)"><path fill="none" stroke="rgb(255,255,255)" paint-order="fill stroke markers" d=" M 0 0 L 20 25" stroke-opacity="1" stroke-linecap="round" stroke-miterlimit="10"/><path fill="none" stroke="rgb(255,255,255)" paint-order="fill stroke markers" d=" M 0 0 L 20 -70" stroke-opacity="1" stroke-linecap="round" stroke-miterlimit="10"/></g><g transform="translate(150,91.60714285714286)"><path fill="none" stroke="rgb(255,255,255)" paint-order="fill stroke markers" d=" M 0 0 L 20 25" stroke-opacity="1" stroke-linecap="round" stroke-miterlimit="10"/><path fill="none" stroke="rgb(255,255,255)" paint-order="fill stroke markers" d=" M 0 0 L 20 -80" stroke-opacity="1" stroke-linecap="round" stroke-miterlimit="10"/></g><g transform="translate(150,101.25)"><path fill="none" stroke="rgb(255,255,255)" paint-order="fill stroke markers" d=" M 0 0 L 20 25" stroke-opacity="1" stroke-linecap="round" stroke-miterlimit="10"/><path fill="none" stroke="rgb(255,255,255)" paint-order="fill stroke markers" d=" M 0 0 L 20 -90" stroke-opacity="1" stroke-linecap="round" stroke-miterlimit="10"/></g><g transform="translate(177.27272727272728,14.464285714285714)"><path fill="none" stroke="rgb(255,255,255)" paint-order="fill stroke markers" d=" M 0 0 L 20 30" stroke-opacity="1" stroke-linecap="round" stroke-miterlimit="10"/><path fill="none" stroke="rgb(255,255,255)" paint-order="fill stroke markers" d=" M 0 0 L 20 0" stroke-opacity="1" stroke-linecap="round" stroke-miterlimit="10"/></g><g transform="translate(177.27272727272728,24.107142857142858)"><path fill="none" stroke="rgb(255,255,255)" paint-order="fill stroke markers" d=" M 0 0 L 20 30" stroke-opacity="1" stroke-linecap="round" stroke-miterlimit="10"/><path fill="none" stroke="rgb(255,255,255)" paint-order="fill stroke markers" d=" M 0 0 L 20 -10" stroke-opacity="1" stroke-linecap="round" stroke-miterlimit="10"/></g><g transform="translate(177.27272727272728,33.75)"><path fill="none" stroke="rgb(255,255,255)" paint-order="fill stroke markers" d=" M 0 0 L 20 30" stroke-opacity="1" stroke-linecap="round" stroke-miterlimit="10"/><path fill="none" stroke="rgb(255,255,255)" paint-order="fill stroke markers" d=" M 0 0 L 20 -20" stroke-opacity="1" stroke-linecap="round" stroke-miterlimit="10"/></g><g transform="translate(177.27272727272728,43.392857142857146)"><path fill="none" stroke="rgb(255,255,255)" paint-order="fill stroke markers" d=" M 0 0 L 20 30" stroke-opacity="1" stroke-linecap="round" stroke-miterlimit="10"/><path fill="none" stroke="rgb(255,255,255)" paint-order="fill stroke markers" d=" M 0 0 L 20 -30" stroke-opacity="1" stroke-linecap="round" stroke-miterlimit="10"/></g><g transform="translate(177.27272727272728,53.035714285714285)"><path fill="none" stroke="rgb(255,255,255)" paint-order="fill stroke markers" d=" M 0 0 L 20 30" stroke-opacity="1" stroke-linecap="round" stroke-miterlimit="10"/><path fill="none" stroke="rgb(255,255,255)" paint-order="fill stroke markers" d=" M 0 0 L 20 -40" stroke-opacity="1" stroke-linecap="round" stroke-miterlimit="10"/></g><g transform="translate(177.27272727272728,62.67857142857143)"><path fill="none" stroke="rgb(255,255,255)" paint-order="fill stroke markers" d=" M 0 0 L 20 30" stroke-opacity="1" stroke-linecap="round" stroke-miterlimit="10"/><path fill="none" stroke="rgb(255,255,255)" paint-order="fill stroke markers" d=" M 0 0 L 20 -50" stroke-opacity="1" stroke-linecap="round" stroke-miterlimit="10"/></g><g transform="translate(177.27272727272728,72.32142857142857)"><path fill="none" stroke="rgb(255,255,255)" paint-order="fill stroke markers" d=" M 0 0 L 20 30" stroke-opacity="1" stroke-linecap="round" stroke-miterlimit="10"/><path fill="none" stroke="rgb(255,255,255)" paint-order="fill stroke markers" d=" M 0 0 L 20 -60" stroke-opacity="1" stroke-linecap="round" stroke-miterlimit="10"/></g><g transform="translate(177.27272727272728,81.96428571428571)"><path fill="none" stroke="rgb(255,255,255)" paint-order="fill stroke markers" d=" M 0 0 L 20 30" stroke-opacity="1" stroke-linecap="round" stroke-miterlimit="10"/><path fill="none" stroke="rgb(255,255,255)" paint-order="fill stroke markers" d=" M 0 0 L 20 -70" stroke-opacity="1" stroke-linecap="round" stroke-miterlimit="10"/></g><g transform="translate(177.27272727272728,91.60714285714286)"><path fill="none" stroke="rgb(255,255,255)" paint-order="fill stroke markers" d=" M 0 0 L 20 30" stroke-opacity="1" stroke-linecap="round" stroke-miterlimit="10"/><path fill="none" stroke="rgb(255,255,255)" paint-order="fill stroke markers" d=" M 0 0 L 20 -80" stroke-opacity="1" stroke-linecap="round" stroke-miterlimit="10"/></g><g transform="translate(177.27272727272728,101.25)"><path fill="none" stroke="rgb(255,255,255)" paint-order="fill stroke markers" d=" M 0 0 L 20 30" stroke-opacity="1" stroke-linecap="round" stroke-miterlimit="10"/><path fill="none" stroke="rgb(255,255,255)" paint-order="fill stroke markers" d=" M 0 0 L 20 -90" stroke-opacity="1" stroke-linecap="round" stroke-miterlimit="10"/></g><g transform="translate(204.54545454545453,14.464285714285714)"><path fill="none" stroke="rgb(255,255,255)" paint-order="fill stroke markers" d=" M 0 0 L 20 35" stroke-opacity="1" stroke-linecap="round" stroke-miterlimit="10"/><path fill="none" stroke="rgb(255,255,255)" paint-order="fill stroke markers" d=" M 0 0 L 20 0" stroke-opacity="1" stroke-linecap="round" stroke-miterlimit="10"/></g><g transform="translate(204.54545454545453,24.107142857142858)"><path fill="none" stroke="rgb(255,255,255)" paint-order="fill stroke markers" d=" M 0 0 L 20 35" stroke-opacity="1" stroke-linecap="round" stroke-miterlimit="10"/><path fill="none" stroke="rgb(255,255,255)" paint-order="fill stroke markers" d=" M 0 0 L 20 -10" stroke-opacity="1" stroke-linecap="round" stroke-miterlimit="10"/></g><g transform="translate(204.54545454545453,33.75)"><path fill="none" stroke="rgb(255,255,255)" paint-order="fill stroke markers" d=" M 0 0 L 20 35" stroke-opacity="1" stroke-linecap="round" stroke-miterlimit="10"/><path fill="none" stroke="rgb(255,255,255)" paint-order="fill stroke markers" d=" M 0 0 L 20 -20" stroke-opacity="1" stroke-linecap="round" stroke-miterlimit="10"/></g><g transform="translate(204.54545454545453,43.392857142857146)"><path fill="none" stroke="rgb(255,255,255)" paint-order="fill stroke markers" d=" M 0 0 L 20 35" stroke-opacity="1" stroke-linecap="round" stroke-miterlimit="10"/><path fill="none" stroke="rgb(255,255,255)" paint-order="fill stroke markers" d=" M 0 0 L 20 -30" stroke-opacity="1" stroke-linecap="round" stroke-miterlimit="10"/></g><g transform="translate(204.54545454545453,53.035714285714285)"><path fill="none" stroke="rgb(255,255,255)" paint-order="fill stroke markers" d=" M 0 0 L 20 35" stroke-opacity="1" stroke-linecap="round" stroke-miterlimit="10"/><path fill="none" stroke="rgb(255,255,255)" paint-order="fill stroke markers" d=" M 0 0 L 20 -40" stroke-opacity="1" stroke-linecap="round" stroke-miterlimit="10"/></g><g transform="translate(204.54545454545453,62.67857142857143)"><path fill="none" stroke="rgb(255,255,255)" paint-order="fill stroke markers" d=" M 0 0 L 20 35" stroke-opacity="1" stroke-linecap="round" stroke-miterlimit="10"/><path fill="none" stroke="rgb(255,255,255)" paint-order="fill stroke markers" d=" M 0 0 L 20 -50" stroke-opacity="1" stroke-linecap="round" stroke-miterlimit="10"/></g><g transform="translate(204.54545454545453,72.32142857142857)"><path fill="none" stroke="rgb(255,255,255)" paint-order="fill stroke markers" d=" M 0 0 L 20 35" stroke-opacity="1" stroke-linecap="round" stroke-miterlimit="10"/><path fill="none" stroke="rgb(255,255,255)" paint-order="fill stroke markers" d=" M 0 0 L 20 -60" stroke-opacity="1" stroke-linecap="round" stroke-miterlimit="10"/></g><g transform="translate(204.54545454545453,81.96428571428571)"><path fill="none" stroke="rgb(255,255,255)" paint-order="fill stroke markers" d=" M 0 0 L 20 35" stroke-opacity="1" stroke-linecap="round" stroke-miterlimit="10"/><path fill="none" stroke="rgb(255,255,255)" paint-order="fill stroke markers" d=" M 0 0 L 20 -70" stroke-opacity="1" stroke-linecap="round" stroke-miterlimit="10"/></g><g transform="translate(204.54545454545453,91.60714285714286)"><path fill="none" stroke="rgb(255,255,255)" paint-order="fill stroke markers" d=" M 0 0 L 20 35" stroke-opacity="1" stroke-linecap="round" stroke-miterlimit="10"/><path fill="none" stroke="rgb(255,255,255)" paint-order="fill stroke markers" d=" M 0 0 L 20 -80" stroke-opacity="1" stroke-linecap="round" stroke-miterlimit="10"/></g><g transform="translate(204.54545454545453,101.25)"><path fill="none" stroke="rgb(255,255,255)" paint-order="fill stroke markers" d=" M 0 0 L 20 35" stroke-opacity="1" stroke-linecap="round" stroke-miterlimit="10"/><path fill="none" stroke="rgb(255,255,255)" paint-order="fill stroke markers" d=" M 0 0 L 20 -90" stroke-opacity="1" stroke-linecap="round" stroke-miterlimit="10"/></g><g transform="translate(231.8181818181818,14.464285714285714)"><path fill="none" stroke="rgb(255,255,255)" paint-order="fill stroke markers" d=" M 0 0 L 20 40" stroke-opacity="1" stroke-linecap="round" stroke-miterlimit="10"/><path fill="none" stroke="rgb(255,255,255)" paint-order="fill stroke markers" d=" M 0 0 L 20 0" stroke-opacity="1" stroke-linecap="round" stroke-miterlimit="10"/></g><g transform="translate(231.8181818181818,24.107142857142858)"><path fill="none" stroke="rgb(255,255,255)" paint-order="fill stroke markers" d=" M 0 0 L 20 40" stroke-opacity="1" stroke-linecap="round" stroke-miterlimit="10"/><path fill="none" stroke="rgb(255,255,255)" paint-order="fill stroke markers" d=" M 0 0 L 20 -10" stroke-opacity="1" stroke-linecap="round" stroke-miterlimit="10"/></g><g transform="translate(231.8181818181818,33.75)"><path fill="none" stroke="rgb(255,255,255)" paint-order="fill stroke markers" d=" M 0 0 L 20 40" stroke-opacity="1" stroke-linecap="round" stroke-miterlimit="10"/><path fill="none" stroke="rgb(255,255,255)" paint-order="fill stroke markers" d=" M 0 0 L 20 -20" stroke-opacity="1" stroke-linecap="round" stroke-miterlimit="10"/></g><g transform="translate(231.8181818181818,43.392857142857146)"><path fill="none" stroke="rgb(255,255,255)" paint-order="fill stroke markers" d=" M 0 0 L 20 40" stroke-opacity="1" stroke-linecap="round" stroke-miterlimit="10"/><path fill="none" stroke="rgb(255,255,255)" paint-order="fill stroke markers" d=" M 0 0 L 20 -30" stroke-opacity="1" stroke-linecap="round" stroke-miterlimit="10"/></g><g transform="translate(231.8181818181818,53.035714285714285)"><path fill="none" stroke="rgb(255,255,255)" paint-order="fill stroke markers" d=" M 0 0 L 20 40" stroke-opacity="1" stroke-linecap="round" stroke-miterlimit="10"/><path fill="none" stroke="rgb(255,255,255)" paint-order="fill stroke markers" d=" M 0 0 L 20 -40" stroke-opacity="1" stroke-linecap="round" stroke-miterlimit="10"/></g><g transform="translate(231.8181818181818,62.67857142857143)"><path fill="none" stroke="rgb(255,255,255)" paint-order="fill stroke markers" d=" M 0 0 L 20 40" stroke-opacity="1" stroke-linecap="round" stroke-miterlimit="10"/><path fill="none" stroke="rgb(255,255,255)" paint-order="fill stroke markers" d=" M 0 0 L 20 -50" stroke-opacity="1" stroke-linecap="round" stroke-miterlimit="10"/></g><g transform="translate(231.8181818181818,72.32142857142857)"><path fill="none" stroke="rgb(255,255,255)" paint-order="fill stroke markers" d=" M 0 0 L 20 40" stroke-opacity="1" stroke-linecap="round" stroke-miterlimit="10"/><path fill="none" stroke="rgb(255,255,255)" paint-order="fill stroke markers" d=" M 0 0 L 20 -60" stroke-opacity="1" stroke-linecap="round" stroke-miterlimit="10"/></g><g transform="translate(231.8181818181818,81.96428571428571)"><path fill="none" stroke="rgb(255,255,255)" paint-order="fill stroke markers" d=" M 0 0 L 20 40" stroke-opacity="1" stroke-linecap="round" stroke-miterlimit="10"/><path fill="none" stroke="rgb(255,255,255)" paint-order="fill stroke markers" d=" M 0 0 L 20 -70" stroke-opacity="1" stroke-linecap="round" stroke-miterlimit="10"/></g><g transform="translate(231.8181818181818,91.60714285714286)"><path fill="none" stroke="rgb(255,255,255)" paint-order="fill stroke markers" d=" M 0 0 L 20 40" stroke-opacity="1" stroke-linecap="round" stroke-miterlimit="10"/><path fill="none" stroke="rgb(255,255,255)" paint-order="fill stroke markers" d=" M 0 0 L 20 -80" stroke-opacity="1" stroke-linecap="round" stroke-miterlimit="10"/></g><g transform="translate(231.8181818181818,101.25)"><path fill="none" stroke="rgb(255,255,255)" paint-order="fill stroke markers" d=" M 0 0 L 20 40" stroke-opacity="1" stroke-linecap="round" stroke-miterlimit="10"/><path fill="none" stroke="rgb(255,255,255)" paint-order="fill stroke markers" d=" M 0 0 L 20 -90" stroke-opacity="1" stroke-linecap="round" stroke-miterlimit="10"/></g><g transform="translate(259.0909090909091,14.464285714285714)"><path fill="none" stroke="rgb(255,255,255)" paint-order="fill stroke markers" d=" M 0 0 L 20 45" stroke-opacity="1" stroke-linecap="round" stroke-miterlimit="10"/><path fill="none" stroke="rgb(255,255,255)" paint-order="fill stroke markers" d=" M 0 0 L 20 0" stroke-opacity="1" stroke-linecap="round" stroke-miterlimit="10"/></g><g transform="translate(259.0909090909091,24.107142857142858)"><path fill="none" stroke="rgb(255,255,255)" paint-order="fill stroke markers" d=" M 0 0 L 20 45" stroke-opacity="1" stroke-linecap="round" stroke-miterlimit="10"/><path fill="none" stroke="rgb(255,255,255)" paint-order="fill stroke markers" d=" M 0 0 L 20 -10" stroke-opacity="1" stroke-linecap="round" stroke-miterlimit="10"/></g><g transform="translate(259.0909090909091,33.75)"><path fill="none" stroke="rgb(255,255,255)" paint-order="fill stroke markers" d=" M 0 0 L 20 45" stroke-opacity="1" stroke-linecap="round" stroke-miterlimit="10"/><path fill="none" stroke="rgb(255,255,255)" paint-order="fill stroke markers" d=" M 0 0 L 20 -20" stroke-opacity="1" stroke-linecap="round" stroke-miterlimit="10"/></g><g transform="translate(259.0909090909091,43.392857142857146)"><path fill="none" stroke="rgb(255,255,255)" paint-order="fill stroke markers" d=" M 0 0 L 20 45" stroke-opacity="1" stroke-linecap="round" stroke-miterlimit="10"/><path fill="none" stroke="rgb(255,255,255)" paint-order="fill stroke markers" d=" M 0 0 L 20 -30" stroke-opacity="1" stroke-linecap="round" stroke-miterlimit="10"/></g><g transform="translate(259.0909090909091,53.035714285714285)"><path fill="none" stroke="rgb(255,255,255)" paint-order="fill stroke markers" d=" M 0 0 L 20 45" stroke-opacity="1" stroke-linecap="round" stroke-miterlimit="10"/><path fill="none" stroke="rgb(255,255,255)" paint-order="fill stroke markers" d=" M 0 0 L 20 -40" stroke-opacity="1" stroke-linecap="round" stroke-miterlimit="10"/></g><g transform="translate(259.0909090909091,62.67857142857143)"><path fill="none" stroke="rgb(255,255,255)" paint-order="fill stroke markers" d=" M 0 0 L 20 45" stroke-opacity="1" stroke-linecap="round" stroke-miterlimit="10"/><path fill="none" stroke="rgb(255,255,255)" paint-order="fill stroke markers" d=" M 0 0 L 20 -50" stroke-opacity="1" stroke-linecap="round" stroke-miterlimit="10"/></g><g transform="translate(259.0909090909091,72.32142857142857)"><path fill="none" stroke="rgb(255,255,255)" paint-order="fill stroke markers" d=" M 0 0 L 20 45" stroke-opacity="1" stroke-linecap="round" stroke-miterlimit="10"/><path fill="none" stroke="rgb(255,255,255)" paint-order="fill stroke markers" d=" M 0 0 L 20 -60" stroke-opacity="1" stroke-linecap="round" stroke-miterlimit="10"/></g><g transform="translate(259.0909090909091,81.96428571428571)"><path fill="none" stroke="rgb(255,255,255)" paint-order="fill stroke markers" d=" M 0 0 L 20 45" stroke-opacity="1" stroke-linecap="round" stroke-miterlimit="10"/><path fill="none" stroke="rgb(255,255,255)" paint-order="fill stroke markers" d=" M 0 0 L 20 -70" stroke-opacity="1" stroke-linecap="round" stroke-miterlimit="10"/></g><g transform="translate(259.0909090909091,91.60714285714286)"><path fill="none" stroke="rgb(255,255,255)" paint-order="fill stroke markers" d=" M 0 0 L 20 45" stroke-opacity="1" stroke-linecap="round" stroke-miterlimit="10"/><path fill="none" stroke="rgb(255,255,255)" paint-order="fill stroke markers" d=" M 0 0 L 20 -80" stroke-opacity="1" stroke-linecap="round" stroke-miterlimit="10"/></g><g transform="translate(259.0909090909091,101.25)"><path fill="none" stroke="rgb(255,255,255)" paint-order="fill stroke markers" d=" M 0 0 L 20 45" stroke-opacity="1" stroke-linecap="round" stroke-miterlimit="10"/><path fill="none" stroke="rgb(255,255,255)" paint-order="fill stroke markers" d=" M 0 0 L 20 -90" stroke-opacity="1" stroke-linecap="round" stroke-miterlimit="10"/></g></g></g></svg>
