<svg version="1.1" xmlns="http://www.w3.org/2000/svg" xmlns:xlink="http://www.w3.org/1999/xlink" width="400" height="200" viewBox="0 0 400 200"><defs/><g><rect fill="rgb(255,255,255)" stroke="none" x="0" y="0" width="400" height="200" transform="matrix(1 0 0 1 0 0)" fill-opacity="1"/><path fill="none" stroke="rgb(255,255,255)" paint-order="fill stroke markers" d=" M 200 0 L 200 10 L 10 10 L 10 20 L 10 20 L 10 180 L 17.75 20 L 20.971088436188456 180 L 25.5 20 L 30.4272486499423 180 L 33.25 20 L 37.56604683324437 180 L 41 20 L 42.67494075077953 180 L 48.75 20 L 46.9960838615519 180 L 56.5 20 L 52.142121137932065 180 L 64.25 20 L 59.337736936878336 180 L 72 20 L 68.8436668106384 180 L 79.75 20 L 79.83406950242176 180 L 87.5 20 L 90.78493299359394 180 L 95.25 20 L 100.190841169385 180 L 103 20 L 107.2729945404414 180 L 110.75 20 L 112.34549181174675 180 L 118.5 20 L 116.66760435374037 180 L 126.25 20 L 121.85152120014165 180 L 134 20 L 129.1041113542434 180 L 141.75 20 L 138.65931443881482 180 L 149.5 20 L 149.66811523610568 180 L 157.25 20 L 160.597848810983 180 L 165 20 L 169.95303677847434 180 L 172.75 20 L 176.97873415571468 180 L 180.5 20 L 182.01559178372852 180 L 188.25 20 L 186.33964291407997 180 L 196 20 L 191.5621648320925 180 L 203.75 20 L 198.87186997265923 180 L 211.5 20 L 208.47583588796857 180 L 219.25 20 L 219.50211343903405 180 L 227 20 L 230.40981810034066 180 L 234.75 20 L 239.71383202917954 180 L 242.5 20 L 246.6832781926803 180 L 250.25 20 L 251.68526325663865 180 L 258 20 L 256.0122215843928 180 L 265.75 20 L 261.2740631609016 180 L 273.5 20 L 268.64100777128067 180 L 281.25 20 L 278.29321235067437 180 L 289 20 L 289.3360403626274 180 L 296.75 20 L 300.2208233412612 180 L 304.5 20 L 309.4732238693892 180 L 312.25 20 L 316.3866395029769 180 L 320 20 L 321.35452894153934 180 L 327.75 20 L 325.6853622537973 180 L 335.5 20 L 330.98722695894907 180 L 343.25 20 L 338.411519339331 180 L 351 20 L 348.11142477777133 180 L 358.75 20 L 359.16987227845874 180 L 366.5 20 L 370.03084728590164 180 L 374.25 20 L 379.2312096437743 180 L 382 20 L 386.0888312726322 180 L 389.75 20 L 391.0234116642202 180 L 391.0234116642202 190 L 200 190 L 200 200" stroke-opacity="1" stroke-linecap="round" stroke-miterlimit="10" stroke-dasharray=""/></g></svg>
